<svg xmlns="http://www.w3.org/2000/svg" width="1920" height="22.014" viewBox="0 0 1920 22.014"><defs><style>.a{fill:#fff;}</style></defs><path class="a" d="M1906.848,337.123a3.748,3.748,0,0,0-6.435,0l-11.784,19.685-11.782-19.685a3.748,3.748,0,0,0-6.436,0l-11.781,19.685-11.782-19.685a3.748,3.748,0,0,0-6.436,0l-11.781,19.685-11.785-19.685a3.748,3.748,0,0,0-6.436,0l-11.781,19.685-11.782-19.685a3.748,3.748,0,0,0-6.436,0l-11.782,19.685-11.784-19.685a3.748,3.748,0,0,0-6.436,0l-11.781,19.685-11.782-19.685a3.748,3.748,0,0,0-6.436,0l-11.782,19.685-11.781-19.685a3.75,3.75,0,0,0-6.438,0l-11.781,19.685-11.782-19.685a3.748,3.748,0,0,0-6.436,0l-11.782,19.685-11.781-19.685a3.748,3.748,0,0,0-6.436,0l-11.784,19.685-11.782-19.685a3.748,3.748,0,0,0-6.435,0l-11.782,19.685-11.781-19.685a3.748,3.748,0,0,0-6.436,0l-11.782,19.685-11.785-19.685a3.748,3.748,0,0,0-6.435,0l-11.782,19.685-11.782-19.685a3.748,3.748,0,0,0-6.435,0l-11.782,19.685-11.785-19.685a3.748,3.748,0,0,0-6.436,0l-11.781,19.685-11.782-19.685a3.748,3.748,0,0,0-6.435,0l-11.781,19.685-11.782-19.685a3.75,3.75,0,0,0-6.438,0l-11.781,19.685-11.782-19.685a3.748,3.748,0,0,0-6.435,0l-11.782,19.685-11.782-19.685a3.748,3.748,0,0,0-6.436,0l-11.784,19.685-11.782-19.685a3.748,3.748,0,0,0-6.436,0l-11.781,19.685-11.782-19.685a3.748,3.748,0,0,0-6.436,0l-11.784,19.685-11.782-19.685a3.748,3.748,0,0,0-6.436,0l-11.781,19.685-11.782-19.685a3.748,3.748,0,0,0-6.436,0l-11.782,19.685-11.784-19.685a3.748,3.748,0,0,0-6.436,0l-11.781,19.685-11.782-19.685a3.748,3.748,0,0,0-6.436,0l-11.782,19.685-11.784-19.685a3.748,3.748,0,0,0-6.436,0l-11.781,19.685-11.782-19.685a3.748,3.748,0,0,0-6.436,0l-11.782,19.685-11.782-19.685a3.75,3.75,0,0,0-6.438,0l-11.781,19.685-11.782-19.685a3.748,3.748,0,0,0-6.435,0l-11.782,19.685-11.782-19.685a3.748,3.748,0,0,0-6.436,0l-11.785,19.685-11.782-19.685a3.748,3.748,0,0,0-6.435,0L988.63,356.808l-11.782-19.685a3.748,3.748,0,0,0-6.435,0l-11.782,19.685-11.784-19.685a3.748,3.748,0,0,0-6.435,0L928.63,356.808l-11.782-19.685a3.748,3.748,0,0,0-6.435,0l-11.782,19.685-11.784-19.685a3.748,3.748,0,0,0-6.436,0L868.63,356.808l-11.782-19.685a3.748,3.748,0,0,0-6.435,0l-11.782,19.685-11.782-19.685a3.75,3.75,0,0,0-6.438,0l-11.782,19.685-11.782-19.685a3.748,3.748,0,0,0-6.435,0l-11.782,19.685-11.782-19.685a3.748,3.748,0,0,0-6.436,0l-11.784,19.685-11.782-19.685a3.748,3.748,0,0,0-6.436,0L718.63,356.808l-11.782-19.685a3.748,3.748,0,0,0-6.435,0l-11.785,19.685-11.782-19.685a3.748,3.748,0,0,0-6.436,0L658.63,356.808l-11.782-19.685a3.748,3.748,0,0,0-6.436,0l-11.782,19.685-11.784-19.685a3.748,3.748,0,0,0-6.436,0L598.63,356.808l-11.782-19.685a3.748,3.748,0,0,0-6.436,0l-11.782,19.685-11.784-19.685a3.748,3.748,0,0,0-6.436,0L538.63,356.808l-11.782-19.685a3.748,3.748,0,0,0-6.436,0l-11.782,19.685-11.782-19.685a3.75,3.75,0,0,0-6.438,0l-11.782,19.685-11.782-19.685a3.748,3.748,0,0,0-6.436,0l-11.782,19.685-11.782-19.685a3.748,3.748,0,0,0-6.435,0l-11.784,19.685-11.782-19.685a3.748,3.748,0,0,0-6.436,0L388.63,356.808l-11.782-19.685a3.748,3.748,0,0,0-6.435,0l-11.784,19.685-11.782-19.685a3.748,3.748,0,0,0-6.436,0L328.63,356.808l-11.782-19.685a3.748,3.748,0,0,0-6.436,0l-11.782,19.685-11.784-19.685a3.748,3.748,0,0,0-6.436,0L268.63,356.808l-11.782-19.685a3.748,3.748,0,0,0-6.435,0l-11.782,19.685L226.85,337.123a3.75,3.75,0,0,0-6.438,0L208.63,356.808l-11.782-19.685a3.748,3.748,0,0,0-6.436,0l-11.782,19.685-11.782-19.685a3.748,3.748,0,0,0-6.436,0l-11.785,19.685-11.782-19.685a3.748,3.748,0,0,0-6.436,0l-11.782,19.685-11.782-19.685a3.748,3.748,0,0,0-6.436,0L88.629,356.808,76.847,337.123a3.748,3.748,0,0,0-6.436,0L58.63,356.808,46.849,337.123a3.748,3.748,0,0,0-6.436,0L28.632,356.808,16.847,337.123a3.748,3.748,0,0,0-6.436,0L-1.37,356.808v.5h1920v-.5Z" transform="translate(1.37 -335.297)"/></svg>