<svg xmlns="http://www.w3.org/2000/svg" xmlns:xlink="http://www.w3.org/1999/xlink" width="497" height="400.338" viewBox="0 0 497 400.338"><defs><style>.a,.ab{fill:none;}.b{fill:url(#a);}.c{fill:#f4f4f4;}.d{fill:#270b19;}.e{fill:#ec5c33;}.f{fill:#bed075;}.g{fill:#f6f6f6;}.h{fill:#e2f1f8;}.i{fill:#a6cec7;}.j{fill:#519d9d;}.k{fill:#fff;}.l{fill:#091029;}.m{fill:#843a5e;}.n{fill:#f27b7c;}.o{fill:#babfc2;}.p{fill:url(#b);}.q{fill:url(#c);}.r{fill:#3c4750;}.s{fill:url(#d);}.t{fill:url(#e);}.u{clip-path:url(#f);}.v{fill:url(#g);}.w{fill:url(#h);}.x{fill:url(#i);}.y{fill:#f3e5a3;}.z{fill:#f7dd9c;}.aa{fill:#404040;}.ab{stroke:#c5d9ee;stroke-linecap:round;stroke-linejoin:round;stroke-width:1.5px;stroke-dasharray:3;}.ac{fill:#c5d9ee;}.ad{fill:#1387c0;}.ae{fill:#0e6f9d;}.af{fill:#014163;}.ag{fill:url(#j);}.ah{fill:url(#k);}.ai{fill:url(#l);}.aj{fill:url(#m);}.ak{fill:url(#n);}.al{fill:url(#o);}.am{fill:url(#p);}.an{fill:#f15846;}.ao{fill:url(#q);}.ap{fill:url(#r);}.aq{fill:url(#s);}.ar{fill:url(#t);}</style><linearGradient id="a" x1="0.824" y1="0.188" x2="0.098" y2="0.952" gradientUnits="objectBoundingBox"><stop offset="0" stop-color="#fcfbe7"/><stop offset="0.191" stop-color="#fdfcef"/><stop offset="0.59" stop-color="#fefefb"/><stop offset="1" stop-color="#fff"/></linearGradient><linearGradient id="b" x1="0.367" y1="0.927" x2="0.703" y2="-0.098" gradientUnits="objectBoundingBox"><stop offset="0" stop-color="#00283d"/><stop offset="1" stop-color="#004b5a"/></linearGradient><linearGradient id="c" y1="0.5" x2="1" y2="0.5" gradientUnits="objectBoundingBox"><stop offset="0" stop-color="#b9baba"/><stop offset="1" stop-color="#e9eaea"/></linearGradient><linearGradient id="d" y1="0.5" x2="1" y2="0.5" gradientUnits="objectBoundingBox"><stop offset="0" stop-color="#c8dbee"/><stop offset="1" stop-color="#f9e8f1"/></linearGradient><linearGradient id="e" y1="0.5" x2="1" y2="0.5" gradientUnits="objectBoundingBox"><stop offset="0" stop-color="#a4a4a5"/><stop offset="1" stop-color="#d5d5d6"/></linearGradient><clipPath id="f"><rect class="a" width="261.684" height="150.641" rx="3.059"/></clipPath><linearGradient id="g" x1="1.068" y1="0.263" x2="0.1" y2="0.96" gradientUnits="objectBoundingBox"><stop offset="0" stop-color="#d5effb"/><stop offset="1" stop-color="#84bfda"/></linearGradient><linearGradient id="h" y1="0.5" x2="1" y2="0.5" gradientUnits="objectBoundingBox"><stop offset="0" stop-color="#fef0f4"/><stop offset="1" stop-color="#81bfe5"/></linearGradient><linearGradient id="i" x1="0.5" y1="0.072" x2="0.5" y2="0.98" gradientUnits="objectBoundingBox"><stop offset="0" stop-color="#fff"/><stop offset="1" stop-color="#e9f6fd"/></linearGradient><linearGradient id="j" x1="0.5" y1="1" x2="0.5" gradientUnits="objectBoundingBox"><stop offset="0" stop-color="#ffc717"/><stop offset="1" stop-color="#fffbcc"/></linearGradient><linearGradient id="k" x1="0.5" y1="1" x2="0.5" gradientUnits="objectBoundingBox"><stop offset="0.003" stop-color="#fff9af"/><stop offset="1" stop-color="#fffbcc"/></linearGradient><linearGradient id="l" x1="0.5" y1="1" x2="0.5" gradientUnits="objectBoundingBox"><stop offset="0" stop-color="#73c4d0"/><stop offset="1" stop-color="#fffdef"/></linearGradient><linearGradient id="m" x1="0.5" y1="0.875" x2="0.5" y2="-0.149" gradientUnits="objectBoundingBox"><stop offset="0" stop-color="#c60b2e"/><stop offset="0.783" stop-color="#bc5020"/><stop offset="1" stop-color="#b85b1b"/></linearGradient><linearGradient id="n" x1="0.508" y1="1.066" x2="0.491" y2="-0.291" gradientUnits="objectBoundingBox"><stop offset="0" stop-color="#c60b2e"/><stop offset="1" stop-color="#b85b1b"/></linearGradient><linearGradient id="o" x1="0.508" y1="1.07" x2="0.491" y2="-0.287" xlink:href="#n"/><linearGradient id="p" x1="0.517" y1="0.951" x2="0.49" y2="-0.097" xlink:href="#n"/><linearGradient id="q" x1="0.5" y1="1" x2="0.5" y2="0" xlink:href="#h"/><linearGradient id="r" x1="0.92" y1="0.094" x2="-0.375" y2="1.345" xlink:href="#g"/><linearGradient id="s" x1="1.079" y1="-0.083" x2="-0.104" y2="1.217" xlink:href="#g"/><linearGradient id="t" x1="7.04" y1="5.551" x2="7.04" y2="4.551" xlink:href="#g"/></defs><g transform="translate(-376.981 -1096.652)"><path class="b" d="M379.652,1358.905c-6.212-28.463-1.162-65.169,10.762-83.2,6.859-10.363,16.865-18.15,25.669-26.921,34.837-34.708,52.9-86.921,96.141-110.348,22.806-12.358,50.1-31.214,74.68-38.839,20.924-6.492,43.469-1.007,64.673,4.491,6.76,1.754,13.576,3.527,19.807,6.674,6.766,3.415,12.635,8.342,18.434,13.222q68.621,57.738,137.239,115.477c13.325,11.212,26.828,22.615,36.62,37.016,14.993,22.05,14.342,43.651-6.71,62.223-13.556,11.955-30.643,20.237-41.26,34.866-15.419,21.244-14.507,52.316-33.357,70.588-15.835,15.35-40.134,16.469-61.061,23.42-16.918,5.617-32.234,15.412-49.238,20.775-33.562,10.581-93.444,12.628-126.51-.581-21.429-8.563-37.673-26.713-55.07-41.141-15.822-13.124-31.881-19.058-50.4-27.568-10.449-4.8-20.009-11.3-29.516-17.763a143.291,143.291,0,0,1-15.108-11.274C387.594,1383.012,382.469,1371.8,379.652,1358.905Z" transform="translate(0 0)"/><g transform="translate(667.449 1203.158)"><rect class="c" width="44.619" height="96.998" transform="translate(19.717) rotate(11.728)"/><rect class="d" width="39.45" height="14.692" transform="translate(21.603 3.627) rotate(11.728)"/><rect class="e" width="39.45" height="14.692" transform="translate(17.743 22.223) rotate(11.728)"/><rect class="f" width="39.45" height="14.692" transform="translate(13.882 40.82) rotate(11.728)"/></g><g transform="translate(722.256 1238.47)"><rect class="g" width="44.619" height="96.998" transform="translate(68.478 0) rotate(44.908)"/><rect class="h" width="39.45" height="14.692" transform="translate(68.072 4.068) rotate(44.908)"/><rect class="i" width="39.45" height="14.692" transform="translate(54.664 17.52) rotate(44.908)"/><rect class="j" width="39.45" height="14.692" transform="translate(41.255 30.971) rotate(44.908)"/></g><g transform="translate(699.605 1216.114)"><rect class="k" width="44.619" height="96.998" transform="translate(41.55 0) rotate(25.363)"/><rect class="l" width="39.45" height="14.692" transform="translate(42.529 3.969) rotate(25.363)"/><rect class="m" width="39.45" height="14.692" transform="translate(34.393 21.131) rotate(25.363)"/><rect class="n" width="39.45" height="14.692" transform="translate(26.257 38.294) rotate(25.363)"/></g><g transform="translate(461.517 1256.281)"><path class="o" d="M482.32,1196.233H452.182l-14.513,66.588h59.163Z" transform="translate(-321.792 -1027.009)"/><path class="p" d="M693.51,1154.583a9.62,9.62,0,0,0-9.593-9.593H412.185a9.622,9.622,0,0,0-9.593,9.593v164.708H693.51Z" transform="translate(-402.552 -1144.99)"/><path class="q" d="M402.58,1197.771v25.91a9.621,9.621,0,0,0,9.593,9.594H683.9a9.621,9.621,0,0,0,9.593-9.594v-25.91Z" transform="translate(-402.58 -1023.469)"/><circle class="r" cx="6.655" cy="6.655" r="6.655" transform="translate(138.804 185.711)"/><rect class="s" width="261.684" height="150.641" rx="3.059" transform="translate(14.617 12.204)"/><g transform="translate(88.556 228.345)"><path class="t" d="M534.834,1214.136h-97.07c-4.6,0-8.368,5.25-8.368,11.667H543.2C543.2,1219.386,539.437,1214.136,534.834,1214.136Z" transform="translate(-429.396 -1214.136)"/></g></g><g transform="translate(476.134 1268.485)"><g class="u"><g transform="translate(-0.149 -5.821)"><path class="v" d="M557,1146.923s-21.644,11.258-22.136,31c0,0-22.139,1.8-24.107,22.8,0,0-42.307-4.92-48.7,16.129,0,0-21.647-30.035-55.1-16.129v102.66H557Z" transform="translate(-406.961 -1146.923)"/><g transform="translate(0.231)"><path class="w" d="M644.956,1207.954s-18.457,9.587-16,26.855c0,0-26.455-26.148-64.6-8.388,0,0,1.846-8.153-7.384-10l-7.384-69.5-19.375,29.88-15.234,23.49c-2.761,4.253-8.656,17.575-13.738,18.219a22.66,22.66,0,0,1-5.951-.505,28.575,28.575,0,0,0-32.456,26.416c-9.914-3.309-21.3-3.137-30.362,2.073a28,28,0,0,0-11.4,12.546c-2.246,4.94-.578,11.878-3.758,15.729v28.615H644.956Z" transform="translate(-383.353 -1146.923)"/><path class="x" d="M407.031,1294.648h261.6v-22.162s-6.268-1.549-9.643,3.478c0,0-9.64-15.075-29.886-10.436,0,0,1.446-21.26-33.265-18.942,0,0,7.232-25.128-27.479-27.06l-5.3-68.808H548.114l-6.265,58.373s-34.711-6.185-36.64,25.511c0,0-17.836-.387-27.476,13.53,0,0-36.636-20.488-48.208,15.075,0,0-11.086,3.48-7.714,10.439,0,0-14.781,2.189-14.781,11.594Z" transform="translate(-407.031 -1138.185)"/></g></g></g></g><g transform="translate(484.679 1210.671)"><path class="y" d="M417.93,1137.892a1.735,1.735,0,0,1-1.958,2.418,3.455,3.455,0,0,1-.538-.158c-1.536-.568-3.071-1.136-4.6-1.717a1.739,1.739,0,0,1-1.232-1.546,1.685,1.685,0,0,1,.911-1.7,1.782,1.782,0,0,1,1.578-.069c1.6.588,3.207,1.166,4.785,1.8a2,2,0,0,1,1.053.967" transform="translate(-409.594 -1122.445)"/><path class="y" d="M419.957,1139.6a2.039,2.039,0,0,1-1.932-.294,1.633,1.633,0,0,1-.627-1.724,7.7,7.7,0,0,1,.294-.924c.528-1.423,1.05-2.847,1.6-4.263a1.719,1.719,0,0,1,1.562-1.208,1.685,1.685,0,0,1,1.681.935,1.762,1.762,0,0,1,.069,1.529c-.594,1.618-1.179,3.24-1.823,4.835a5.444,5.444,0,0,1-.819,1.116" transform="translate(-391.734 -1131.178)"/><path class="y" d="M414.236,1136.22c-.386-.855-.812-1.694-1.156-2.562a1.624,1.624,0,0,1,.492-1.859,1.667,1.667,0,0,1,1.76-.34,1.863,1.863,0,0,1,1.1,1.08c.7,1.519,1.407,3.035,2.077,4.564a1.813,1.813,0,0,1-.515,2.3,1.743,1.743,0,0,1-2.176-.109,2.89,2.89,0,0,1-.6-.872c-.353-.717-.67-1.456-1.007-2.186Z" transform="translate(-401.838 -1130.786)"/><path class="z" d="M444.413,1182.241c-2.332,1.063-4.66,2.14-7,3.187-1.79.8-3.233.317-3.986-1.512a11.425,11.425,0,0,0-4.438-5.066c-3.444-2.374-7.1-4.511-10.26-7.219-8.94-7.671-9.808-20.548-2.246-29.6,8.13-9.729,23.817-9.627,31.891.158,4.188,5.065,5.528,10.891,4.878,17.278-.3,2.959-.789,5.9-1.192,8.851a11.1,11.1,0,0,0,.882,6.677c.908,1.81.317,3.2-1.539,4.055-2.325,1.076-4.66,2.13-6.991,3.193m-14.986-39.051c-.129-.449-.832-.621-2.523-.294-3.738.727-6.925,5.439-7.936,8.768-.819,2.7.165,8.718,1.787,11.036,1.2,1.711,1.978,2.645,2.652.373.337-1.143-.687-3.7-.667-5.023a17.69,17.69,0,0,1,1.01-5.505,17.493,17.493,0,0,1,3.345-5.8c1.083-1.215,2.549-2.787,2.332-3.553" transform="translate(-405.517 -1122.863)"/><path class="aa" d="M419.523,1159.209q.5,1.1,1,2.192l19.656-8.966q-.5-1.094-1-2.192Z" transform="translate(-386.733 -1087.285)"/><path class="aa" d="M435.079,1149.691c-2.305,1.037-4.6,2.094-6.9,3.144-2.361,1.077-4.732,2.136-7.083,3.24a2.743,2.743,0,0,0-1.509,4.006l.056.122,19.659-8.966C438.408,1149.311,437.048,1148.806,435.079,1149.691Z" transform="translate(-387.422 -1089.527)"/><path class="aa" d="M423.268,1161.472a7.532,7.532,0,0,0,1.334-.574,1.426,1.426,0,0,1,1.529.053,6.849,6.849,0,0,0,10.062-4.613,2.624,2.624,0,0,1,.885-1.1,4.1,4.1,0,0,1,.931-.449,2.645,2.645,0,0,0,1.559-3.5l-19.56,8.919A2.575,2.575,0,0,0,423.268,1161.472Z" transform="translate(-385.614 -1084.863)"/></g><path class="ab" d="M446.275,1263.281c-13.1-7.232-24.5-17.747-34-29.236-4.815-5.815-8.3-12.568-11.241-19.487-2.741-6.443-6.139-13.242-7.107-20.2a78.623,78.623,0,0,1-.416-20.686,48,48,0,0,1,8.86-22.066" transform="translate(36.882 126.524)"/><path class="ab" d="M466.582,1298.657c-55.562-24.173-118.987-108.119-54.393-158.077" transform="translate(18.349 101.138)"/><path class="ac" d="M395.1,1153.208l9.906,12.47,11.54-19.336Z" transform="translate(41.721 114.403)"/><g transform="translate(426.536 1212.313)"><path class="ad" d="M402.439,1141.7l-10.452-10.024,49.675.626Z" transform="translate(-391.987 -1131.676)"/><path class="ad" d="M396.163,1148.139l13.4,11,22.49-27.27Z" transform="translate(-382.373 -1131.24)"/><path class="ae" d="M396.419,1141.263l-1.816,17.292,5.155-10.416,35.885-16.274Z" transform="translate(-385.967 -1131.24)"/><path class="af" d="M394.6,1147.209l9.684-6.7-4.529-3.718Z" transform="translate(-385.967 -1119.894)"/></g><g transform="translate(589.036 1104.062)"><path class="ag" d="M465.589,1138.924s-20.158,10.67-20.158,32.409,20.158,48.621,20.158,48.621,20.161-26.878,20.161-48.621S465.589,1138.924,465.589,1138.924Z" transform="translate(-431.44 -1006.737)"/><path class="ah" d="M459.662,1138.924s-11.657,7-11.657,21.257,11.657,31.885,11.657,31.885,11.661-17.628,11.661-31.885S459.662,1138.924,459.662,1138.924Z" transform="translate(-425.514 -1006.737)"/><path class="ai" d="M452.327,1106.65c-5.5,10.742-10.042,25.088-10.468,43.479-1.133,48.7,15.571,69.085,15.571,69.085a54.655,54.655,0,0,0,31.145,0s16.707-20.385,15.574-69.085c-.426-18.391-4.973-32.737-10.469-43.479a67.87,67.87,0,0,1-41.352,0Z" transform="translate(-439.793 -1081.043)"/><path class="aj" d="M465.666,1098.9s-11.624,7.9-20.676,25.607a67.87,67.87,0,0,0,41.352,0C477.29,1106.8,465.666,1098.9,465.666,1098.9Z" transform="translate(-432.456 -1098.896)"/><g transform="translate(0 98.219)"><path class="ak" d="M474.3,1147.514l-8.8-15.716a1.247,1.247,0,0,0-1.248-.634,1.26,1.26,0,0,0-1.06.915l-7.542,27.657a1.242,1.242,0,0,0,.122.958l11.941,20.745a1.261,1.261,0,0,0,1.09.631,1.209,1.209,0,0,0,.241-.027,1.245,1.245,0,0,0,1-1.063l4.4-32.687A1.252,1.252,0,0,0,474.3,1147.514Z" transform="translate(-408.032 -1122.848)"/><path class="al" d="M452.46,1132.08a1.26,1.26,0,0,0-1.06-.915,1.221,1.221,0,0,0-1.248.634l-8.8,15.716a1.252,1.252,0,0,0-.145.779l4.4,32.687a1.253,1.253,0,0,0,1,1.063,1.208,1.208,0,0,0,.241.027,1.261,1.261,0,0,0,1.09-.631l11.941-20.745a1.243,1.243,0,0,0,.122-.958Z" transform="translate(-441.195 -1122.85)"/><path class="am" d="M455.582,1128.638a1.259,1.259,0,0,0-1.139.73c-.2.449-5.033,11.06-4.643,19.111.373,7.787,4.366,43.449,4.534,44.962a1.258,1.258,0,0,0,2.5,0c.168-1.513,4.158-37.175,4.534-44.962.386-8.051-4.438-18.662-4.643-19.111A1.261,1.261,0,0,0,455.582,1128.638Z" transform="translate(-421.434 -1128.638)"/></g><g transform="translate(18.597 36.276)"><circle class="k" cx="12.728" cy="12.728" r="12.728" transform="translate(1.885 1.883)"/><path class="an" d="M461.439,1139.1a14.611,14.611,0,1,1,14.61-14.613A14.629,14.629,0,0,1,461.439,1139.1Zm0-25.455a10.843,10.843,0,1,0,10.842,10.842A10.858,10.858,0,0,0,461.439,1113.649Z" transform="translate(-446.826 -1109.881)"/></g></g><circle class="ao" cx="21.285" cy="21.285" r="21.285" transform="translate(698.526 1313.192)"/><circle class="ap" cx="5.882" cy="5.882" r="5.882" transform="translate(562.654 1289.31)"/><path class="aq" d="M447.237,1157.486a4.956,4.956,0,0,0-9.877.833,8.605,8.605,0,0,0-1.278-.129,9.081,9.081,0,1,0,7.728,4.468A4.95,4.95,0,0,0,447.237,1157.486Z" transform="translate(115.375 129.688)"/><circle class="ar" cx="14.457" cy="14.457" r="14.457" transform="translate(726.64 1335.052)"/></g></svg>