<svg xmlns="http://www.w3.org/2000/svg" xmlns:xlink="http://www.w3.org/1999/xlink" width="457" height="336.421" viewBox="0 0 457 336.421"><defs><style>.a{fill:url(#a);}.b{fill:url(#b);}.c{fill:#8897a4;}.d{fill:#f04d53;}.e{fill:#f6a456;}.f{fill:#56b857;}.an,.as,.g,.p,.q{fill:#fff;}.g{opacity:0.74;}.h{fill:#c8c3c2;}.i{fill:url(#c);}.j{opacity:0.66;}.k{fill:url(#d);}.l{fill:url(#g);}.m{fill:url(#h);}.n{fill:url(#i);}.o{fill:#839fb1;stroke-linejoin:round;stroke-width:0.75px;}.o,.p{stroke:#839fb1;}.an,.o{stroke-linecap:round;}.an,.p{stroke-miterlimit:10;}.r{fill:url(#j);}.s{fill:url(#k);}.t{fill:url(#l);}.u{opacity:0.6;fill:url(#m);}.v{fill:url(#n);}.w{fill:url(#o);}.x{fill:url(#p);}.y{fill:url(#q);}.z{fill:url(#r);}.aa{fill:url(#s);}.ab{fill:url(#t);}.ac{fill:url(#u);}.ad{fill:url(#v);}.ae{fill:url(#w);}.af{fill:none;}.ag{fill:url(#x);}.ah{fill:url(#y);}.ai{fill:url(#z);}.aj{fill:url(#aa);}.ak{fill:url(#ab);}.al{fill:url(#ac);}.am{fill:url(#ad);}.an{stroke:#fff;}.ao{fill:url(#af);}.ap{fill:url(#ag);}.aq{fill:url(#ah);}.ar,.as{opacity:0.7;}.at{fill:url(#ai);}.au{fill:url(#aj);}.av{fill:#314f8a;}</style><linearGradient id="a" y1="0.5" x2="1" y2="0.5" gradientUnits="objectBoundingBox"><stop offset="0" stop-color="#fcfbe7"/><stop offset="0.424" stop-color="#f3f8e8"/><stop offset="1" stop-color="#f0f7e9"/></linearGradient><linearGradient id="b" y1="0.5" x2="1" y2="0.5" gradientUnits="objectBoundingBox"><stop offset="0" stop-color="#e9eef7"/><stop offset="1" stop-color="#fff"/></linearGradient><linearGradient id="c" y1="0.5" x2="1" y2="0.5" gradientUnits="objectBoundingBox"><stop offset="0.001" stop-color="#5abee9"/><stop offset="1" stop-color="#168aaf"/></linearGradient><linearGradient id="d" y1="0.5" x2="1" y2="0.5" gradientUnits="objectBoundingBox"><stop offset="0" stop-color="#e7f5f7"/><stop offset="1" stop-color="#c9e6cf"/></linearGradient><linearGradient id="g" x1="0" y1="0.5" x2="1" y2="0.5" xlink:href="#d"/><linearGradient id="h" x1="0" y1="0.5" x2="1" y2="0.5" xlink:href="#d"/><linearGradient id="i" x1="0" y1="0.5" x2="1" y2="0.5" xlink:href="#d"/><linearGradient id="j" x1="0.317" y1="0.966" x2="0.771" y2="-0.189" gradientUnits="objectBoundingBox"><stop offset="0.005" stop-color="#204782"/><stop offset="1" stop-color="#90819b"/></linearGradient><linearGradient id="k" x1="0.488" y1="0.86" x2="0.866" y2="-10.935" gradientUnits="objectBoundingBox"><stop offset="0.005" stop-color="#204782"/><stop offset="1" stop-color="#8ebfd6"/></linearGradient><linearGradient id="l" x1="0.214" y1="1.266" x2="0.791" y2="-0.279" gradientUnits="objectBoundingBox"><stop offset="0" stop-color="#a6c2da"/><stop offset="1" stop-color="#f9e8f1"/></linearGradient><linearGradient id="m" x1="0.226" y1="1.241" x2="0.771" y2="-0.249" gradientUnits="objectBoundingBox"><stop offset="0" stop-color="#fff"/><stop offset="1" stop-color="#fff"/></linearGradient><linearGradient id="n" x1="0.358" y1="3.166" x2="0.667" y2="-2.241" xlink:href="#m"/><linearGradient id="o" x1="0.417" y1="0.684" x2="1.448" y2="-1.604" xlink:href="#l"/><linearGradient id="p" x1="0.3" y1="0.908" x2="1.845" y2="-1.38" xlink:href="#l"/><linearGradient id="q" x1="0.175" y1="1.091" x2="1.722" y2="-1.196" xlink:href="#l"/><linearGradient id="r" x1="0.148" y1="1.076" x2="1.18" y2="-1.211" xlink:href="#l"/><linearGradient id="s" x1="-0.001" y1="1.688" x2="1.238" y2="-1.252" xlink:href="#l"/><linearGradient id="t" x1="-0.981" y1="1.905" x2="2.118" y2="-1.035" xlink:href="#l"/><linearGradient id="u" x1="-0.266" y1="1.773" x2="0.973" y2="-0.286" xlink:href="#l"/><linearGradient id="v" x1="-0.382" y1="1.966" x2="0.857" y2="-0.093" xlink:href="#l"/><linearGradient id="w" y1="0.5" x2="1" y2="0.5" gradientUnits="objectBoundingBox"><stop offset="0.001" stop-color="#f6c757"/><stop offset="1" stop-color="#f59b20"/></linearGradient><linearGradient id="x" y1="0.5" x2="1" y2="0.5" gradientUnits="objectBoundingBox"><stop offset="0" stop-color="#c9e6cf"/><stop offset="1" stop-color="#16b4a4"/></linearGradient><linearGradient id="y" x1="94.721" y1="328.435" x2="95.056" y2="328.435" xlink:href="#w"/><linearGradient id="z" x1="224.202" y1="290.709" x2="224.862" y2="290.709" xlink:href="#w"/><linearGradient id="aa" x1="144.914" y1="96.084" x2="146.605" y2="96.084" xlink:href="#w"/><linearGradient id="ab" x1="121.321" y1="429.977" x2="121.87" y2="429.977" xlink:href="#w"/><linearGradient id="ac" x1="231.964" y1="642.646" x2="232.678" y2="642.646" xlink:href="#w"/><linearGradient id="ad" x1="89.38" y1="355.026" x2="90.584" y2="355.026" xlink:href="#w"/><linearGradient id="af" x1="0.139" y1="1.06" x2="1.426" y2="-0.93" xlink:href="#k"/><linearGradient id="ag" x1="0.138" y1="1.065" x2="1.424" y2="-0.944" gradientUnits="objectBoundingBox"><stop offset="0" stop-color="#a6c2da"/><stop offset="0.637" stop-color="#f9e8f1"/></linearGradient><linearGradient id="ah" x1="0.272" y1="0.978" x2="1.083" y2="-0.721" xlink:href="#l"/><linearGradient id="ai" x1="0.057" y1="1.028" x2="1.637" y2="-0.85" xlink:href="#k"/><linearGradient id="aj" x1="0.025" y1="1.024" x2="1.713" y2="-0.839" gradientUnits="objectBoundingBox"><stop offset="0" stop-color="#c8dbee"/><stop offset="1" stop-color="#f9e8f1"/></linearGradient></defs><g transform="translate(-158.641 -954.839)"><g transform="translate(158.641 954.839)"><path class="a" d="M166.951,1179.374c1.345-20.273,13.429-38.288,27.255-53.179s29.82-27.849,41.956-44.144c15.435-20.723,23.806-45.706,35.43-68.783s28.194-45.674,52.5-54.428c26.12-9.41,55.232-.8,80.325,11.083s49.2,27.214,76.549,32.02c41.476,7.295,88.27-16.354,111.269,32.482,7.912,16.8,8.506,37.051,6.923,55.273-1.509,17.351-11.141,30.9-16.315,47.121-3.317,10.4-3.723,21.455-5.312,32.251-2.989,20.281-10.571,40.388-24.6,55.34-9.79,10.431-22.318,17.965-35.421,23.7-37.018,16.2-78.1,18.512-117.961,18.933-19.182.2-37.919,4.577-57.265,5.782a426.156,426.156,0,0,1-63.3-.424c-18.723-1.626-29.522-9.889-45.191-18.181-14.043-7.432-29.241-9.219-41.593-20.264C176.9,1220.262,165.559,1200.328,166.951,1179.374Z" transform="translate(-142.867 -954.839)"/><g transform="translate(147.661 45.779)"><path class="b" d="M209.124,974.012v86.869c0,1.6,1.664,2.907,3.7,2.907H358.1c2.036,0,3.7-1.308,3.7-2.907V974.012Z" transform="translate(-209.124 -963.71)"/><path class="c" d="M361.8,973.394c0-1.6-1.664-2.9-3.7-2.9H212.821c-2.033,0-3.7,1.308-3.7,2.9v7.4H361.8Z" transform="translate(-209.124 -970.49)"/><g transform="translate(7.494 1.737)"><circle class="d" cx="3.278" cy="3.278" r="3.278"/><circle class="e" cx="3.278" cy="3.278" r="3.278" transform="translate(10.772)"/><circle class="f" cx="3.278" cy="3.278" r="3.278" transform="translate(21.544)"/></g><rect class="g" width="49.028" height="38.404" rx="1.755" transform="translate(11.241 22.48)"/><rect class="h" width="52.454" height="1.873" rx="0.32" transform="translate(68.107 31.847)"/><rect class="h" width="34.657" height="1.873" rx="0.32" transform="translate(68.107 39.34)"/><rect class="h" width="21.544" height="1.873" rx="0.32" transform="translate(68.107 46.834)"/><rect class="h" width="10.242" height="1.873" rx="0.32" transform="translate(93.219 46.834)"/></g><g transform="translate(175.322 102.658)"><circle class="i" cx="93.878" cy="93.878" r="93.878"/><g class="j" transform="translate(5.976 11.633)"><path class="k" d="M223.341,1046.149c.6.211,1.05,1.214,1.281,1.942a4.831,4.831,0,0,1,.026,2.223c-.722,3.972,1.617,6.876,3.563,9.834.488.74,1.969.825,2.96,1.2a2.935,2.935,0,0,0-.246-3.952,13.6,13.6,0,0,1-3.135-9.36h1.8c.07.143.184.263.184.38-.023,4.6,2.714,7.953,5.209,11.4a2.168,2.168,0,0,1,.3,2.738,3.177,3.177,0,0,0,.05,2.3c1.615,4.712,5.979,4.855,9.848,5.783a2.644,2.644,0,0,0,.953-.132,9.956,9.956,0,0,1,2.852-.406c.293.035.433,1.308.731,2.308-.135-.094.018.105.187.12a12.191,12.191,0,0,1,9.875,5.844c1.179,1.878,2.869,2.4,4.984,2.469,4.306.137,4.273.222,4.815,4.537.152,1.211-.032,2.112-1.234,2.656-2.811,1.275-3.492,3.475-3.969,6.511-.608,3.887.506,6.523,2.966,9.2,1.84,2,4,3.934,4.206,7,.021.292.614.585.983.8,2.311,1.36,4.68,2.63,6.918,4.1a2.776,2.776,0,0,1,.863,2.03c.082,4.274.064,8.553.044,12.826-.009,1.363-.123,2.72,2,2.574-.366,2.2-.813,4.115-.959,6.055a4.339,4.339,0,0,0,.7,2.892c1.8,2.1,2.635,4.3,1.96,7.058-.576,2.352.152,4.393,1.284,6.552,1.91,3.639,4.3,6.874,7.751,8.918,1.653.977,4.1.6,6.192.839.056-.757.415-2.015.12-2.2-3.039-1.866-4.077-4.247-2.492-7.593a1.714,1.714,0,0,0,.026-.957l-4.189-1.919,2.858-3.937a5.817,5.817,0,0,0-.579-.682c-.7-.48-1.416-.951-2.124-1.422a18.291,18.291,0,0,1,2.319-1.105c3.536-1.126,7.026-2.033,8.909-5.932,1.182-2.454,3.2-4.531,5-6.646a3.333,3.333,0,0,0,.769-3.507,23.5,23.5,0,0,1-.7-2.758,3.546,3.546,0,0,1,3.56-4.376,11.444,11.444,0,0,0,4.268-.646c2.124-.968,3.56-2.624,3.235-5.282a22.5,22.5,0,0,1,.252-2.419,13.732,13.732,0,0,1,3.773-10.144c.974-1.015,1.237-2.708,1.977-4.446-3.314-.281-4.914-2.118-6.2-4.475-.26-.477-1.381-.7-2.1-.684-4.031.091-7.953-.14-11.7-1.962a2.5,2.5,0,0,1-1.758-2.519,10.877,10.877,0,0,0-.486-3.387c-.866-2.471-2.328-4.194-5.362-3.531-1.9.415-3.1-.4-4.022-2.156-1.053-2.009-2.138-4.177-4.838-4.531-1.454,2.2-5.865,2.273-7.374-.073-1.085-1.688-2.846-1.272-4.3-1.825a2.963,2.963,0,0,0-4.083,1.41c-1.9,3.247-4.578,4.25-8.143,2.866a15.16,15.16,0,0,0-2.656-.515l-.611-8.477-5.221-1.047c.167-2.153,2.937-3.75,1.059-6.429-1.916,1.255-3.858,2.536-5.809,3.808-1.205.787-5.075,1.059-5.78.14a5.759,5.759,0,0,1-1.34-5.23c1.562-6.177,6.028-9.77,12.478-9.547,2.1.07,4.212-.052,6.309.053.491.023,1.4.693,1.36.927-.544,3.051,1.843,3.282,3.952,4.262a12.226,12.226,0,0,0-.026-2.542c-.737-3.153,1.185-4.894,3.352-6.505a29.3,29.3,0,0,1,3.054-2.021c1.468-.833,2.764-1.714,2.647-3.685a1.33,1.33,0,0,1,.415-.883c2.612-2.527,4.6-5.83,8.155-7.2,2.586-1,3.811-3.378,5.733-5.04,1.9-1.647,1.857-1.7,4.039-.409l1.439-1.629a8.966,8.966,0,0,1-2.027-.629c-.471-.3-1.094-.9-1.059-1.31.044-.512.714-1.386,1.088-1.372a4.957,4.957,0,0,1,2.9.79,4.239,4.239,0,0,0,5.13.026c.363-.339,1.05-.33,1.588-.482-.044.608.14,1.377-.164,1.793-1.454,1.995-1.4,2.349.974,3.077,1.46.45,2.937.837,4.39,1.249.813-1.9.237-2.852-1.345-3.358a4.446,4.446,0,0,1-1.287-.591,10.909,10.909,0,0,1-1.185-1.2c.409-.287.793-.766,1.234-.831,2.091-.307,2.337-1.72,2.118-3.39a1.551,1.551,0,0,0-.655-1.117c-3.065-1.106-3.323-3.531-3.065-6.242a4.982,4.982,0,0,0-.129-.951l-6.4,2.437c-.17-1.91.178-3.647-.535-4.478s-2.486-.81-3.8-1.132c-3.481-.851-5.209.521-5.215,4.115v.2c-.067,4.73.676,3.6-3.58,4.841-1.9.559-2.156,2.08-2.826,3.393-.594,1.164-1.264,1.892-2.834,1.384v-4.984a18.68,18.68,0,0,1-3.674-.614c-1.269-.483-2.785-1.059-3.51-2.08-1.471-2.068-1.059-3.066,1.264-4.382,3.273-1.86,6.283-4.3,10.313-4.773.135.5.254,1.015.418,1.515a1.482,1.482,0,0,0,2.489.6c.643-.632,1.378-1.173,2.205-1.866l-.667-1.123c1.8-1.2,3.276-2.571,5.013-3.229a17.084,17.084,0,0,1,6.107-1.035c.992.009,1.974,1.2,3.238,2.047-1.436.81-2.533,1.442-3.639,2.056-1.053.582-2.115,1.149-3.609,1.962l9.076,2.153a6.8,6.8,0,0,0,.638-1.331,2.043,2.043,0,0,1,2.647-1.77c2.083.368,2.945-.746,3.247-2.671l-2.3-.7c-.1-.158-.234-.284-.216-.383.468-2.548-.854-3.615-3.1-4.493-3.469-1.354-6.751-3.291-10.67-2a33.434,33.434,0,0,0-4.3,1.685c-.374.184-.594.977-.629,1.506a32.261,32.261,0,0,0,.158,3.414c-1.416-.483-3.15-.535-3.642-1.345-1.457-2.4,1.565-3.08,2.346-4.686-4.034-1.55-7.438-.755-8.175,2.012l1.825.468c.427,1.746-.219,2.46-1.919,2.478-1.1.012-2.217-.021-2.934,1.313-.246.462-1.585.4-2.434.456-1.006.07-2.024.018-3.244.018l-.524-3.264c3.428.521,6.1-.459,7.754-3.478-.954-1.161-1.778-.857-2.785.146a4.274,4.274,0,0,1-6.7-.474c-1.524-2.065-5.546-2.741-7.693-1.243a21.636,21.636,0,0,0-4.042,3.525c.88,0,1.761-.012,2.641,0,2.281.032,2.609.594,1.5,2.632,1.74.184,3.472.3,5.171.606.272.05.4.913.658,1.568H264.3c-.816-1.983-3.838-2.656-9.9-3.6a94.115,94.115,0,0,0-33.778,43.7C220.767,1044.582,221.642,1045.553,223.341,1046.149Zm54.861-13.908c2.8-.1,3.627.447,3.528,2.43C278.386,1034.955,278.141,1034.777,278.2,1032.241Zm-5.841,4.437c.216-1.992,1.261-2.764,3.984-2.94C276.716,1036.439,275.845,1037.082,272.361,1036.678Zm1.881-3.852v-2.878h2.94C277.544,1032.349,276.005,1032.572,274.242,1032.826Zm-1.272-6.842c.819.275,1.3,1.556,2.208,2.735h-8.313A4.93,4.93,0,0,1,272.969,1025.984Zm-1.079,4.054c-1.19,1.691-2.185,3.191-3.291,4.6a1.394,1.394,0,0,1-1.3.29,1.6,1.6,0,0,1-.755-1.179C266.5,1031.34,268.787,1029.635,271.89,1030.038Zm-5.967-11.27c-.094,2.416-.439,4.01-3.054,4.13l-1.676-3.314Zm-8.222-8.222c-1.582.167-3.241.7-4.756-.149l-.085-.646q2.5-.6,4.993-1.208l.436.544C258.1,1009.6,257.947,1010.523,257.7,1010.547Zm.371-6.99c.19,3-1.462,2.828-5.23,2.471C252.337,1003.916,253.966,1003.114,258.072,1003.556Z" transform="translate(-220.624 -993.913)"/><path class="k" d="M281.9,1002.011c-1.3,1.161-.673,2.682.977,3.264a3.5,3.5,0,0,1,1.463,1.407,12.923,12.923,0,0,1,.915,2.091c1.322-.494,2.5-.933,3.882-1.448l.661,4.487c-1.483-.158-2.793-.372-4.11-.424a5.652,5.652,0,0,0-5.783,3.226c-.763,1.521-1.849,2.659-3.764,2.548-2.346-.14-3.258,1.123-3.2,3.323a7.845,7.845,0,0,1-.158,1.144l1.9.9-.43,2.144c-2.647,0-5.18-.152-7.687.05-1.852.149-2.8,1.624-2.65,3.522.067.877.228,1.749.372,2.618.348,2.121,1.416,3.071,3.595,3.232a6.019,6.019,0,0,0,.608,0c3.212-.085,6.777.758,8.023-3.767.316-1.149,1.574-2.015,2.27-3.095.9-1.4,1.916-2.15,3.691-1.524.474.167,1.255-.225,1.764-.562a18.159,18.159,0,0,0,1.989-1.743c1.439,3.829,5.49,4.375,7.918,7.017-.474,2.048-2.328.7-3.53,1.255.3,1.74,1.65,2.088,2.987,1.907,1.31-.178,2.668-.638,2.352-2.586-.1-.6.351-1.29.62-2.156-2.042-2.167-6.587-2.281-6.414-6.76a7.916,7.916,0,0,1,8.912,6.613c.342,1.84,2.024,3.431,3.226,5.347,1.577-2.545.538-5.955,4.3-6.648.091.688.208,1.384.272,2.085.284,3.191,1.945,4.929,5.019,4.657a7.2,7.2,0,0,1,.854-.024q-.8-2.071-1.705-4.1l-.761.047v-1.705a93.76,93.76,0,0,0-11.4-18.448c-.959,1.477-2.63,1.6-4.472,1.345-1.114-.152-2.208-.465-3.314-.708a26.094,26.094,0,0,0,2.58-2.141,5.634,5.634,0,0,0,1.3-2.17,3.01,3.01,0,0,0,.108-.831,94.329,94.329,0,0,0-7.324-7.307,19.857,19.857,0,0,1-1.787,1.4A35.383,35.383,0,0,0,281.9,1002.011Z" transform="translate(-137.311 -985.86)"/><path class="k" d="M314.831,1017.361c-2.15-2.15-4.592-1.811-7.213-1.153l-.228,2.84c-3.838-1.173-7.579-2.317-11.577-3.536v-5.364c-4.648.88-9.208-.114-13.475,2.232-1.48.813-3.773-.012-5.546.462a25.482,25.482,0,0,0-6.327,2.755c-.5.3-.407,1.916-.281,2.887.246,1.875-.523,2.978-2.062,3.958-2.284,1.454-4.431,3.124-6.61,4.741-.863.644-2.3,1.106-1.547,2.606a16.934,16.934,0,0,0,1.948,2.577l1-.029c-.661,1.018-1.334,2.03-1.977,3.06a1.927,1.927,0,0,0-.333.9c-.061,2.238-.149,4.481-.067,6.716a3.31,3.31,0,0,0,.977,1.7c2.211,2.571,4.624,4.987,6.651,7.7,1.381,1.846,3.062,1.714,4.87,1.577,2.182-.167,4.358-.4,6.526-.682a4.864,4.864,0,0,0,2.22-.693,5.228,5.228,0,0,1,6.739.135,9.7,9.7,0,0,0,3.7,1.252,24.741,24.741,0,0,0,3.124.345c-.181,2.065-.486,3.948-.459,5.826a9.638,9.638,0,0,0,.807,4c1.4,2.855,3,5.628,4.671,8.333a2.939,2.939,0,0,1,0,3.53,44.24,44.24,0,0,0-2.08,3.958,4.314,4.314,0,0,0,.948,5.329,4.047,4.047,0,0,1,1.536,3.928,10.4,10.4,0,0,0,2.782,9.135,4.029,4.029,0,0,1,.807,2.375c.123,1.612.035,3.238.035,4.932l.333.029a94,94,0,0,0,18.726-86.725C320.33,1019.034,317.349,1019.879,314.831,1017.361Z" transform="translate(-145.303 -962.662)"/><path class="l" d="M269.373,1007.826c-2.6.067-2.284,1.9-2.279,3.837,2.963-.357,6.256.962,8.052-2.668-3.832-1.576-4.642-4.972-5.449-8.544a6.559,6.559,0,0,0-2.027.415c-.725.465-1.629,1.082-1.825,1.8-.149.547.605,1.433,1.114,2.039C267.788,1005.693,269.838,1005.679,269.373,1007.826Z" transform="translate(-133.611 -981.326)"/><path class="m" d="M269.285,1005.186a2.656,2.656,0,0,0,.763-2.358c-.149-.485-1.445-.918-2.194-.866-2.381.167-3.957,2.448-3.779,5.332C266.5,1008.073,267.808,1006.289,269.285,1005.186Z" transform="translate(-137.007 -978.426)"/><path class="n" d="M250.279,1006.028a2.865,2.865,0,0,1-2.878,1.34c-.12-.006-.278.836-.418,1.284.787.173,1.819.743,2.317.439a22.443,22.443,0,0,0,3.3-3.1C251.4,1005.99,250.452,1005.758,250.279,1006.028Z" transform="translate(-169.884 -970.844)"/></g></g><g transform="translate(143.414 124.089)"><path class="o" d="M276.769,1136.921c-1.989-.184-3.984-.4-5.929-.655l.155-1.187c1.931.251,3.911.471,5.885.652Zm-11.829-1.541c-1.977-.34-3.949-.719-5.859-1.132l.252-1.167c1.9.406,3.849.784,5.809,1.12Zm-11.665-2.533c-1.945-.521-3.873-1.091-5.727-1.693l.369-1.138c1.834.6,3.741,1.158,5.669,1.673Zm-11.355-3.714c-1.9-.746-3.741-1.545-5.487-2.378l.512-1.077c1.726.819,3.545,1.606,5.414,2.343Zm122.957-3.352-.374-1.135q2.834-.935,5.607-1.922l.4,1.126Q367.725,1124.841,364.877,1125.78Zm-133.75-1.8c-1.77-1.021-3.469-2.106-5.051-3.223l.69-.977c1.553,1.1,3.223,2.161,4.961,3.165Zm144.97-2.205-.43-1.118q2.782-1.075,5.5-2.208l.459,1.106Q378.9,1120.689,376.1,1121.773Zm11-4.593-.491-1.091c1.822-.819,3.63-1.664,5.367-2.509l.524,1.076C390.746,1115.508,388.927,1116.356,387.1,1117.181Zm-165.732-.143a48.193,48.193,0,0,1-4.253-4.25l.9-.79a47,47,0,0,0,4.148,4.142Zm176.455-5.06-.553-1.062c1.743-.907,3.5-1.857,5.209-2.823l.585,1.044C401.334,1110.105,399.57,1111.062,397.818,1111.977ZM213.469,1108a37.389,37.389,0,0,1-2.869-5.3l1.094-.483a36.074,36.074,0,0,0,2.779,5.128Zm194.742-1.869-.62-1.024c1.7-1.03,3.384-2.094,5.008-3.159l.655,1C411.618,1104.021,409.922,1105.089,408.211,1106.13Zm9.974-6.541-.693-.974c1.638-1.164,3.238-2.349,4.756-3.521l.731.945C421.449,1097.224,419.835,1098.417,418.185,1099.59ZM208.643,1097l-.018-.07a35.891,35.891,0,0,1-.954-5.891l1.193-.091a34.767,34.767,0,0,0,.918,5.692Zm218.981-4.709-.769-.916c1.524-1.284,3.013-2.6,4.425-3.919l.813.877C430.666,1089.657,429.162,1090.991,427.624,1092.289Zm-218.729-7.175-1.19-.1a41.312,41.312,0,0,1,.954-5.94l1.164.272A40.627,40.627,0,0,0,208.895,1085.114Zm227.463-.968-.86-.831c1.389-1.439,2.726-2.91,3.972-4.37l.91.778C439.116,1081.2,437.762,1082.689,436.358,1084.146Zm7.754-9.1-.962-.714c1.2-1.609,2.314-3.244,3.326-4.864l1.015.638C446.461,1071.753,445.326,1073.414,444.112,1075.05Zm-232.585-1.3-1.12-.418a56.219,56.219,0,0,1,2.4-5.5l1.071.538A53.493,53.493,0,0,0,211.527,1073.745Zm238.909-8.857-1.068-.535a54.187,54.187,0,0,0,2.36-5.376l1.12.418A55.263,55.263,0,0,1,450.436,1064.888Zm-233.67-1.644-1.015-.635c1.027-1.641,2.162-3.305,3.375-4.943l.959.711C218.892,1059.989,217.778,1061.627,216.766,1063.244Zm7-9.483-.91-.775c1.261-1.48,2.615-2.966,4.019-4.426l.863.828C226.345,1050.831,225.008,1052.3,223.762,1053.761Zm230.844-.111-1.164-.275a40.214,40.214,0,0,0,.936-5.765l1.19.105A41.821,41.821,0,0,1,454.607,1053.65Zm-222.657-8.4-.816-.875c1.427-1.331,2.931-2.662,4.469-3.963l.772.916C234.851,1042.615,233.362,1043.934,231.949,1045.25Zm222.47-3.472a34.653,34.653,0,0,0-.924-5.759l-.032-.14,1.158-.29.035.143a36.079,36.079,0,0,1,.956,5.958Zm-213.444-4.171-.731-.948c1.542-1.19,3.153-2.384,4.794-3.551l.693.974C244.105,1035.241,242.5,1036.425,240.976,1037.607Zm210.583-7.234a36.807,36.807,0,0,0-2.788-5.125l1-.652a37.659,37.659,0,0,1,2.881,5.291Zm-6.336-9.772a46.509,46.509,0,0,0-4.151-4.133l.79-.9a47.814,47.814,0,0,1,4.259,4.241Zm-8.766-7.763c-1.556-1.1-3.226-2.162-4.964-3.159l.6-1.038c1.767,1.018,3.469,2.1,5.054,3.22Zm-10.185-5.888c-1.732-.822-3.554-1.609-5.417-2.34l.436-1.115c1.89.74,3.738,1.539,5.493,2.372Zm-10.977-4.332c-1.831-.594-3.738-1.158-5.669-1.67l.31-1.158c1.948.521,3.876,1.088,5.727,1.691Zm-11.416-3.056c-1.9-.41-3.852-.787-5.809-1.117l.2-1.182c1.977.336,3.949.717,5.862,1.129Z" transform="translate(-207.672 -997.263)"/></g><circle class="p" cx="5.309" cy="5.309" r="5.309" transform="translate(155.149 171.727)"/><rect class="q" height="1.243" transform="translate(193.973 297.875)"/><g transform="translate(0 192.321)"><path class="r" d="M266.314,1148.293q-41.067,0-82.133,0c-13.1-.012-17.717-4.525-17.74-17.594q-.083-46.108,0-92.221c.02-13.086,4.926-17.872,18.135-17.874q81.418-.018,162.83,0c13.516.006,18.152,4.692,18.155,18.255q.009,46.112,0,92.221c0,12.387-4.779,17.2-17.105,17.211Q307.384,1148.318,266.314,1148.293Zm-.035-119.371q-40.378,0-80.75.009c-8.36.006-10.819,2.51-10.825,10.942q-.022,44.7,0,89.4c.006,8.447,2.463,10.933,10.831,10.937q80.51.017,161.02,0c8.289,0,10.9-2.644,10.9-10.94q.013-44.462,0-88.922c0-8.942-2.448-11.416-11.384-11.422Q306.174,1028.906,266.279,1028.922Z" transform="translate(-143.703 -1020.591)"/><g transform="translate(0 131.601)"><path class="s" d="M391.773,1065.583H305.732V1066a3.445,3.445,0,0,1-3.434,3.434H254.366a3.443,3.443,0,0,1-3.434-3.434v-.413H164.889a6.249,6.249,0,0,0,0,12.5H391.773a6.249,6.249,0,1,0,0-12.5Z" transform="translate(-158.641 -1065.583)"/></g><path class="t" d="M340.612,1023.447q-39.9-.022-79.79-.006-40.378,0-80.75.009c-8.36.009-10.819,2.51-10.825,10.942q-.022,44.7,0,89.4c.006,8.447,2.463,10.933,10.831,10.937h8.608q76.206.013,152.411,0c8.289,0,10.9-2.647,10.9-10.94q.009-43.221,0-86.436v-2.486C351.993,1025.927,349.548,1023.453,340.612,1023.447Z" transform="translate(-138.245 -1015.11)"/><path class="u" d="M339.193,1114.631q.009-43.221,0-86.436H182.058a6.17,6.17,0,0,0-6.172,6.169v91.206q76.206.013,152.411,0C336.587,1125.568,339.193,1122.924,339.193,1114.631Z" transform="translate(-125.445 -1005.95)"/><path class="v" d="M2.338,0H146.723a0,0,0,0,1,0,0V13.678a0,0,0,0,1,0,0H2.338A2.338,2.338,0,0,1,0,11.34v-9A2.338,2.338,0,0,1,2.338,0Z" transform="translate(67.145 34.678)"/><g transform="translate(78.07 36.929)"><path class="w" d="M185.332,1040.88V1033.5h1.638v2.46a1,1,0,0,1,.254-.617.783.783,0,0,1,.57-.2h.822a1.653,1.653,0,0,1,1.638,1.647v4.1h-1.638v-4.1a.821.821,0,0,0-1.4-.582.8.8,0,0,0-.243.582v4.1Z" transform="translate(-185.332 -1032.675)"/><path class="x" d="M188.4,1033.5h1.641v1.638h.822v.822h-.822v3.285a.734.734,0,0,0,.26.608.807.807,0,0,0,.486.208h.076v.822h-.822a1.642,1.642,0,0,1-1.641-1.638v-3.285h-.822v-.822h.822Z" transform="translate(-181.014 -1032.675)"/><path class="y" d="M190.08,1033.5h1.638v1.638h.822v.822h-.822v3.285a.742.742,0,0,0,.26.608.814.814,0,0,0,.486.208h.076v.822h-.822a1.637,1.637,0,0,1-1.638-1.638v-3.285h-.822v-.822h.822Z" transform="translate(-177.775 -1032.675)"/><path class="z" d="M190.941,1034.057h1.638v.822a.82.82,0,0,1,.208-.617.847.847,0,0,1,.614-.2h.822a1.576,1.576,0,0,1,1.155.486,1.6,1.6,0,0,1,.483,1.161v2.46a1.642,1.642,0,0,1-1.638,1.638h-1.644v1.638h-1.638Zm1.638,4.923h.822a.8.8,0,0,0,.579-.24.784.784,0,0,0,.243-.576v-2.46a.791.791,0,0,0-.243-.579.81.81,0,0,0-.579-.24.785.785,0,0,0-.582.237.8.8,0,0,0-.24.582Z" transform="translate(-174.535 -1031.597)"/><path class="aa" d="M197.282,1035.7h-.816c-.07-.55-.331-.825-.775-.825a1.056,1.056,0,0,0-.655.173.6.6,0,0,0-.216.509q0,.355,1.193.994a2.614,2.614,0,0,1,1.123.866,1.865,1.865,0,0,1,.146.731,1.6,1.6,0,0,1-.483,1.17,1.576,1.576,0,0,1-1.155.479h-.822a1.446,1.446,0,0,1-1.638-1.638h.822c.064.547.319.819.769.819a1.021,1.021,0,0,0,.652-.173.6.6,0,0,0,.219-.512c0-.228-.4-.562-1.19-.991a2.581,2.581,0,0,1-1.126-.866,1.824,1.824,0,0,1-.146-.731,1.648,1.648,0,0,1,1.638-1.652h.822C196.671,1034.057,197.215,1034.607,197.282,1035.7Z" transform="translate(-170.217 -1031.597)"/><path class="ab" d="M195.148,1035.7v-1.647h1.638v1.647Zm0,4.1v-1.638h1.638v1.638Z" transform="translate(-166.436 -1031.597)"/><path class="ac" d="M196.271,1041.421l3.282-8.2h.816l-3.276,8.2Z" transform="translate(-164.275 -1033.216)"/><path class="ad" d="M198.235,1041.421l3.282-8.2h.816l-3.276,8.2Z" transform="translate(-160.494 -1033.216)"/></g></g><rect class="q" width="60.691" height="47.54" rx="3.672" transform="translate(68.625 254.042)"/><g transform="translate(136.532 272.427)"><rect class="q" width="56.31" height="3.044" rx="0.52"/><rect class="q" width="35.003" height="3.044" rx="0.52" transform="translate(0 7.201)"/><rect class="q" width="16.641" height="3.044" rx="0.52" transform="translate(40.801 7.201)"/><rect class="q" width="16.641" height="3.044" rx="0.52" transform="translate(16.641 17.706) rotate(180)"/></g><g transform="translate(68.922 100.557)"><path class="ae" d="M193,1059.2a3.033,3.033,0,0,1-2.978-2.469,59.293,59.293,0,0,1-1.082-11.118,40.445,40.445,0,0,1,.129-4.168,9.656,9.656,0,0,1,.231-2.527,8.766,8.766,0,0,1,.945-2.562c1.281-1.48,4.914-1.352,5.262.886a6.348,6.348,0,0,1-.129,2.044c-.12.7-.111,1.343-.173,2.042-.129,1.407-.193,2.849-.193,4.285a53.355,53.355,0,0,0,.974,9.98,3.034,3.034,0,0,1-2.413,3.551A2.946,2.946,0,0,1,193,1059.2Zm2.881-29.753a3.037,3.037,0,0,1-2.79-4.235,56.729,56.729,0,0,1,8.368-13.622,3.037,3.037,0,0,1,4.692,3.858,50.645,50.645,0,0,0-7.479,12.159A3.036,3.036,0,0,1,195.878,1029.451Zm17.342-21.879a3.035,3.035,0,0,1-1.854-5.44c1.781-1.375,3.5-2.814,5.362-4.089,2.118-1.454,5.043-4.057,7.143-1.474,1.831,2.249.2,4.288-1.8,5.6-2.366,1.559-4.753,3.036-7,4.771A3.018,3.018,0,0,1,213.22,1007.572Zm21.256-12.145a3.025,3.025,0,0,1-2.407-1.185c-2.638-3.425,3.235-7.383,5.677-3.27,1.132,1.91-.006,2.732-1.419,3.823A3.034,3.034,0,0,1,234.475,995.427Zm-39.6,73.715c-1.928,0-4.01-1.451-5.435-2.442a55.433,55.433,0,0,0-5.628-3.527,3.036,3.036,0,0,1,2.852-5.362,60.461,60.461,0,0,1,6.151,3.841c.55.38.989.667,1.331.877,1.96-2.165,3.966-4.326,5.967-6.432a3.037,3.037,0,0,1,4.4,4.186c-2.393,2.516-4.8,5.122-7.146,7.74A3.262,3.262,0,0,1,194.877,1069.143Z" transform="translate(-182.204 -989.218)"/></g><g transform="translate(231.76 89.466)"><path class="af" d="M330.426,985.945A92.031,92.031,0,1,0,384.468,1152.4h-5.856v-30.367H411.2a92,92,0,0,0-80.776-136.09Z" transform="translate(-236.877 -984.427)"/><path class="ag" d="M331.425,1171.007a92.072,92.072,0,1,1,82.68-51.643c-.562,1.146-1.626,2.43-1.55,3.738.032.564,1.237.02,1.4-.123a8.839,8.839,0,0,0,1.208-2.343q1.141-2.277,2.153-4.616a92.881,92.881,0,0,0,7.409-30.168q.254-3.435.252-6.879a93.6,93.6,0,1,0-54.349,84.923q3.655-1.693,7.16-3.7c.913-.524,6.546-3.267,6.218-4.376-.462-1.574-2.744.477-3.331.848q-2.071,1.321-4.215,2.53a91.462,91.462,0,0,1-45.033,11.811Z" transform="translate(-237.876 -985.426)"/></g></g><g transform="translate(405.727 1252.61)"><path class="ah" d="M268.982,1062.958a3.034,3.034,0,0,1-2.583,2.878,59.278,59.278,0,0,1-11.15.643c-1.617-.064-3.241-.2-4.823-.406a3.037,3.037,0,0,1,.787-6.022c1.4.184,2.84.3,4.276.363a53.516,53.516,0,0,0,10.006-.583,3.041,3.041,0,0,1,3.457,2.551A3.18,3.18,0,0,1,268.982,1062.958Z" transform="translate(-234.13 -1050.568)"/><path class="ai" d="M252.4,1063.087a3.022,3.022,0,0,1-1.875,2.308,7.214,7.214,0,0,1-3.855.09c-2.056-.395-4.112-1.711-3.416-4.086a3.056,3.056,0,0,1,1.588-1.878,4.647,4.647,0,0,1,2.562-.082,14.5,14.5,0,0,1,3.478.743A2.517,2.517,0,0,1,252.4,1063.087Z" transform="translate(-243.116 -1051.528)"/><g transform="translate(31.171)"><path class="aj" d="M267.46,1067.543c-.076,1.927-1.606,3.949-2.656,5.335a55.174,55.174,0,0,0-3.744,5.481,3.037,3.037,0,1,1-5.247-3.06,60.558,60.558,0,0,1,4.08-6c.4-.535.7-.959.93-1.292-2.086-2.045-4.168-4.136-6.192-6.216a3.038,3.038,0,1,1,4.355-4.235c2.422,2.492,4.929,5,7.453,7.444A3.273,3.273,0,0,1,267.46,1067.543Z" transform="translate(-253.773 -1056.642)"/></g></g><g transform="translate(544.259 1188.429)"><path class="ak" d="M300.705,1037.121a2.073,2.073,0,0,1,.114,2.635,42.011,42.011,0,0,1-3.291,3.852,4.258,4.258,0,0,1-2.811,1.451,2.065,2.065,0,0,1-2.164-1.813c-.035-1.129,1.263-1.761,1.948-2.466a37.148,37.148,0,0,0,3.013-3.521,2.069,2.069,0,0,1,3.191-.137Z" transform="translate(-286.483 -1031.358)"/><path class="al" d="M295.983,1040.181a2.065,2.065,0,0,1,.187,2.021,4.917,4.917,0,0,1-1.837,1.884c-1.19.787-2.82,1.126-3.612-.363a2.076,2.076,0,0,1-.123-1.673,3.135,3.135,0,0,1,1.211-1.261,9.826,9.826,0,0,1,2.047-1.3A1.719,1.719,0,0,1,295.983,1040.181Z" transform="translate(-290.478 -1025.737)"/><g transform="translate(8.035)"><path class="am" d="M303.071,1035.438a6.63,6.63,0,0,1,1.117,3.454,34.091,34.091,0,0,0,.7,3.987,1.85,1.85,0,1,1-3.589.9,36.484,36.484,0,0,1-.778-4.353c-.053-.4-.1-.719-.149-.959-1.778,0-3.577-.026-5.347-.07a1.851,1.851,0,1,1,.094-3.7c2.115.053,4.276.073,6.42.064A2,2,0,0,1,303.071,1035.438Z" transform="translate(-293.225 -1034.7)"/></g></g><circle class="ag" cx="8.082" cy="8.082" r="8.082" transform="translate(535.122 1057.916)"/><g transform="translate(377.098 1208.092)"><path class="an" d="M237.409,1046.134l-.009-1.2c1.936-.012,3.928-.056,5.923-.129l.044,1.2C241.36,1046.078,239.354,1046.122,237.409,1046.134Z" transform="translate(-225.49 -1034.902)"/><path class="an" d="M239.286,1046.189c-2-.047-4-.129-5.958-.243l.07-1.193c1.939.111,3.928.193,5.917.243Z" transform="translate(-233.328 -1035.01)"/><path class="an" d="M241.528,1046.205l-.079-1.193c1.948-.123,3.937-.281,5.911-.465l.111,1.193C245.485,1045.921,243.488,1046.08,241.528,1046.205Z" transform="translate(-217.695 -1035.406)"/><path class="an" d="M245.628,1046.032l-.143-1.185q2.926-.351,5.879-.781l.173,1.185Q248.566,1045.681,245.628,1046.032Z" transform="translate(-209.926 -1036.33)"/><path class="an" d="M249.7,1045.637l-.2-1.179q2.9-.5,5.832-1.079l.231,1.173Q252.621,1045.135,249.7,1045.637Z" transform="translate(-202.203 -1037.655)"/><path class="an" d="M253.735,1045.017l-.26-1.167q2.856-.636,5.727-1.351l.328,1.152-.044.009Q256.608,1044.38,253.735,1045.017Z" transform="translate(-194.546 -1039.349)"/><path class="an" d="M257.725,1044.215l-.316-1.155q2.874-.79,5.7-1.638l.342,1.144Q260.615,1043.422,257.725,1044.215Z" transform="translate(-186.973 -1041.422)"/></g><g transform="translate(457.269 1172.355)"><path class="ao" d="M260.746,1072.528c0-11.621-.023-23.242.009-34.863.015-6.189,2.188-8.43,8.2-8.441q23.749-.04,47.5,0c5.847.009,7.953,1.866,7.979,7.774q.149,35.438-.006,70.875c-.026,5.818-2.182,7.678-8.073,7.687q-23.749.035-47.5-.006c-5.827-.011-8.079-2.281-8.1-8.163C260.719,1095.77,260.746,1084.149,260.746,1072.528Zm57.543-1.3c0-9.588.015-19.173-.006-28.761-.012-5.057-1.109-6.23-5.97-6.242q-19.748-.048-39.5,0c-4.414.015-5.689,1.3-5.695,5.756q-.044,29.146,0,58.289c.006,4.4,1.3,5.674,5.783,5.689q19.752.066,39.5,0c4.668-.015,5.856-1.258,5.873-5.976C318.312,1090.4,318.289,1080.809,318.289,1071.223Z" transform="translate(-260.737 -1029.204)"/><path class="ap" d="M316.343,1067.018c0-9.927.018-19.855-.006-29.782-.012-5.235-1.167-6.452-6.289-6.464q-20.8-.048-41.6.006c-4.648.012-5.99,1.346-6,5.961q-.048,30.177,0,60.36c.009,4.557,1.369,5.873,6.093,5.891q20.8.071,41.6,0c4.917-.015,6.169-1.3,6.186-6.186C316.369,1086.876,316.343,1076.946,316.343,1067.018Z" transform="translate(-257.498 -1026.236)"/><rect class="aq" width="5.437" height="5.437" rx="0.929" transform="translate(29.169 79.271)"/><g class="ar" transform="translate(14.127 57.099)"><rect class="q" width="34.821" height="2.218" rx="0.379" transform="translate(35.521 12.904) rotate(180)"/><rect class="q" width="21.645" height="2.218" rx="0.379" transform="translate(35.521 7.656) rotate(-180)"/><rect class="q" width="10.29" height="2.218" rx="0.379" transform="translate(10.29 7.656) rotate(-180)"/><rect class="q" width="10.29" height="2.218" rx="0.379" transform="translate(25.23)"/></g><g class="ar" transform="translate(14.127 47.131)"><rect class="q" width="34.821" height="2.218" rx="0.379" transform="translate(35.521 7.467) rotate(180)"/><rect class="q" width="21.645" height="2.218" rx="0.379" transform="translate(35.521 2.218) rotate(-180)"/><rect class="q" width="21.021" height="2.218" rx="0.379" transform="translate(21.021 12.187) rotate(-180)"/></g><rect class="as" width="35.343" height="27.187" rx="3.277" transform="translate(14.216 14.929)"/></g><g transform="translate(563.652 1132.102)"><path class="at" d="M297.112,1037.794q0-8.995,0-17.986c.006-3.194.869-4.35,3.256-4.355q9.424-.022,18.848,0c2.32,0,3.156.962,3.165,4.01q.061,18.282,0,36.565c-.012,3-.866,3.96-3.2,3.966q-9.424.018-18.848,0c-2.314-.006-3.206-1.176-3.215-4.212C297.1,1049.783,297.112,1043.79,297.112,1037.794Zm22.832-.673q0-7.419,0-14.838c0-2.609-.439-3.214-2.369-3.22q-7.836-.026-15.672,0c-1.749.006-2.255.67-2.258,2.969q-.017,15.036,0,30.072c0,2.27.518,2.928,2.3,2.934q7.836.035,15.672,0c1.851-.009,2.322-.649,2.328-3.083C319.953,1047.013,319.944,1042.068,319.944,1037.121Z" transform="translate(-297.108 -1015.442)"/><path class="au" d="M319.173,1036.39q0-8.362,0-16.725c-.006-2.943-.465-3.624-2.495-3.633q-8.257-.026-16.509,0c-1.846.009-2.378.758-2.381,3.349q-.018,16.949,0,33.9c0,2.559.544,3.3,2.419,3.308q8.253.039,16.509,0c1.951-.009,2.448-.731,2.454-3.475C319.182,1047.54,319.17,1041.965,319.173,1036.39Z" transform="translate(-295.822 -1014.333)"/><g transform="translate(8.533 39.927)"><rect class="av" width="8.195" height="1.326" rx="0.227" transform="translate(8.195 1.326) rotate(-180)"/></g></g></g></svg>